PathFileType	4	(X/Y/Z)	c:/Users/goper/Files/vsCode/490R/osim_files/A01/A01_PWS_03.trc
DataRate	CameraRate	NumFrames	NumMarkers	Units                	OrigDataRate	OrigDataStartFrame	OrigNumFrames
120.00	120.00	8	36	mm	120.0	1313	1750
                Frame#	Time	Mobility_markerset:LPSIS			Mobility_markerset:LASIS			Mobility_markerset:LTH1			Mobility_markerset:LTH2			Mobility_markerset:LTH3			Mobility_markerset:LTH4			Mobility_markerset:LLFE			Mobility_markerset:LMFE			Mobility_markerset:LSH1			Mobility_markerset:LSH2			Mobility_markerset:LSH3			Mobility_markerset:LSH4			Mobility_markerset:LLMAL			Mobility_markerset:LMMAL			Mobility_markerset:LCAL			Mobility_markerset:LMTP5			Mobility_markerset:LTOE			Mobility_markerset:LMTP1			Mobility_markerset:RPSIS			Mobility_markerset:RASIS			Mobility_markerset:RTH1			Mobility_markerset:RTH2			Mobility_markerset:RTH3			Mobility_markerset:RTH4			Mobility_markerset:RLFE			Mobility_markerset:RMFE			Mobility_markerset:RSH1			Mobility_markerset:RSH2			Mobility_markerset:RSH3			Mobility_markerset:RSH4			Mobility_markerset:RLMAL			Mobility_markerset:RMMAL			Mobility_markerset:RCAL			Mobility_markerset:RMTP1			Mobility_markerset:RTOE			Mobility_markerset:RMTP5		
		X1	Y1	Z1	X2	Y2	Z2	X3	Y3	Z3	X4	Y4	Z4	X5	Y5	Z5	X6	Y6	Z6	X7	Y7	Z7	X8	Y8	Z8	X9	Y9	Z9	X10	Y10	Z10	X11	Y11	Z11	X12	Y12	Z12	X13	Y13	Z13	X14	Y14	Z14	X15	Y15	Z15	X16	Y16	Z16	X17	Y17	Z17	X18	Y18	Z18	X19	Y19	Z19	X20	Y20	Z20	X21	Y21	Z21	X22	Y22	Z22	X23	Y23	Z23	X24	Y24	Z24	X25	Y25	Z25	X26	Y26	Z26	X27	Y27	Z27	X28	Y28	Z28	X29	Y29	Z29	X30	Y30	Z30	X31	Y31	Z31	X32	Y32	Z32	X33	Y33	Z33	X34	Y34	Z34	X35	Y35	Z35	X36	Y36	Z36

1313	10.93333	-3339.94580	1061.99902	1425.87415	-3092.49756	1019.66553	1382.59546	-3210.21875	691.26019	1326.07141	-3205.10718	645.88867	1339.28857	-3150.90283	696.14429	1335.93262	-3154.04492	651.79956	1351.37256	0.00000	0.00000	0.00000	-3180.62891	532.37677	1390.41675	-1401.60266	1332.00562	3086.53369	0.00000	0.00000	0.00000	0.00000	0.00000	0.00000	0.00000	0.00000	0.00000	-3293.16577	91.97054	1436.65588	-3319.70386	94.93898	1514.86694	-3380.61157	68.26685	1462.16467	-3154.15039	37.70884	1450.04541	-3140.14819	58.64993	1520.85962	-3163.96118	48.42947	1551.43884	-3357.16553	1054.77478	1526.61377	-3143.14648	1002.64984	1632.67810	-3201.59863	678.80334	1722.09485	-3177.66113	641.47668	1723.37854	-3145.84033	705.38104	1734.05774	-3129.94434	664.44885	1733.62683	-3091.20947	518.82050	1703.27917	-3043.67407	533.31927	1588.39270	-3270.53198	399.98743	1663.37891	-3293.55688	360.81543	1658.35803	0.00000	0.00000	0.00000	-3251.80103	329.29834	1671.90710	-3367.40869	202.73830	1610.80420	-3311.70752	201.11339	1538.90796	-3408.45947	206.57898	1544.07959	-3244.04932	76.52267	1558.99597	-3224.31689	73.63760	1615.28125	-3305.23315	75.52546	1657.14868
1314	10.94167	-3333.21338	1062.32288	1428.51892	-3085.90601	1019.42584	1383.05176	-3206.40015	691.49658	1327.33984	-3201.31982	645.96246	1340.58276	-3146.80005	695.85754	1337.06384	-3150.86377	651.58960	1352.14026	0.00000	0.00000	0.00000	-3177.12354	532.10486	1391.29016	-1402.48059	1331.74707	3085.20386	0.00000	0.00000	0.00000	0.00000	0.00000	0.00000	0.00000	0.00000	0.00000	-3292.76367	92.37823	1436.75183	-3319.29321	95.37695	1515.19556	-3380.34521	69.03011	1462.26465	-3154.21069	37.56463	1450.03967	-3139.97168	58.47712	1520.89771	-3163.85425	48.34035	1551.50586	-3349.61206	1055.21375	1529.42920	-3134.33374	1003.72235	1633.58325	-3188.48999	679.94794	1724.20642	-3164.36084	643.03540	1724.96863	-3133.06885	707.28326	1735.11951	-3116.68262	666.85284	1734.36804	-3077.30469	521.14429	1703.16711	-3031.80347	535.79791	1588.37866	-3252.79834	395.27457	1666.41931	-3274.22949	355.46188	1662.06177	0.00000	0.00000	0.00000	-3231.23901	325.41077	1675.84167	-3342.07153	193.20340	1617.55090	-3287.31592	192.97336	1545.12769	-3383.72534	193.85054	1550.82324	-3213.73584	72.32507	1568.61890	-3193.24243	71.72314	1624.29175	-3272.78955	69.55114	1666.31995
1315	10.95000	-3326.46265	1062.51392	1431.27930	-3079.56226	1018.99982	1383.59290	-3202.33887	691.62183	1328.62561	-3197.65845	646.11975	1341.73352	-3140.97144	695.34082	1337.96985	-3146.93848	651.22784	1353.22583	0.00000	0.00000	0.00000	-3173.77539	532.03992	1392.12268	-1403.35156	1331.38049	3083.93457	0.00000	0.00000	0.00000	0.00000	0.00000	0.00000	0.00000	0.00000	0.00000	-3292.11719	92.76024	1436.87952	-3318.86548	95.79619	1515.53442	-3380.07275	69.77803	1462.44580	-3154.09375	37.45556	1450.02832	-3139.80420	58.24137	1520.90674	-3163.74365	48.23823	1551.60999	-3342.13037	1055.64661	1532.31836	-3126.76782	1004.14905	1634.75586	-3175.88623	681.22156	1726.19739	-3151.19824	644.40173	1726.40308	-3120.43872	708.98926	1736.00134	-3103.84229	668.42535	1734.76428	-3063.84863	523.29126	1702.90479	-3020.72803	538.07654	1587.90088	-3235.16260	390.23920	1669.33423	-3254.74097	349.93658	1665.61670	0.00000	0.00000	0.00000	-3210.64819	321.41235	1679.88599	-3316.34448	183.64929	1624.28906	-3261.93481	184.59164	1551.63159	-3358.19019	180.97478	1557.72534	-3182.67651	68.17927	1577.65637	-3161.89966	69.69044	1633.28687	-3242.54224	65.79237	1675.44421
1316	10.95833	-3319.75342	1062.71216	1434.18591	-3072.69409	1018.38086	1383.99622	-3198.31689	691.72791	1329.98499	-3193.72583	646.12469	1343.07605	-3136.87427	695.12671	1339.33997	-3142.14209	651.05139	1354.09155	0.00000	0.00000	0.00000	-3170.08130	531.69086	1393.09412	-1404.29810	1330.99402	3082.72681	0.00000	0.00000	0.00000	0.00000	0.00000	0.00000	0.00000	0.00000	0.00000	-3291.72852	93.20074	1436.99341	-3318.14502	96.13993	1516.10291	-3379.79248	70.54739	1462.58997	-3153.96533	37.33652	1450.01965	-3139.67822	58.06676	1520.96533	-3163.64697	48.13783	1551.68433	-3334.61572	1056.02087	1535.31958	-3117.60083	1005.01727	1635.62878	-3163.50220	682.28717	1727.87341	-3138.41992	645.60760	1727.53418	-3107.97144	710.38013	1736.59229	-3091.55688	669.80713	1735.01001	-3050.93262	525.26581	1702.50427	-3009.73315	540.46594	1586.47913	-3217.50952	384.88043	1672.15710	-3235.39038	343.75119	1669.19214	0.00000	0.00000	0.00000	-3190.13818	317.36102	1683.74133	-3290.19141	174.20085	1631.05371	-3236.81836	175.73341	1558.30457	-3332.06616	168.34860	1564.65076	-3151.25635	64.36045	1586.64673	-3130.57837	67.86471	1641.95569	-3210.79907	61.12430	1684.42725
1317	10.96667	-3313.08862	1062.89954	1437.15137	-3066.58032	1017.65027	1384.55334	-3194.95703	691.86115	1330.75647	-3190.03540	646.13519	1344.31274	-3132.80640	694.72705	1340.39880	-3139.20581	650.61877	1355.19080	0.00000	0.00000	0.00000	-3166.55957	531.50720	1394.03003	-1405.23401	1330.61926	3081.45239	0.00000	0.00000	0.00000	0.00000	0.00000	0.00000	0.00000	0.00000	0.00000	-3291.51294	93.70719	1437.01050	-3317.80225	96.65200	1516.38074	-3379.48096	71.37489	1462.78235	-3153.89551	37.26481	1449.97217	-3139.56030	57.90917	1521.04895	-3163.51587	48.03493	1551.80212	-3326.95532	1056.28308	1538.42725	-3109.05054	1005.21338	1636.72766	-3151.27954	683.11737	1729.38086	-3126.14722	646.65002	1728.54602	-3095.75488	711.64935	1736.96887	-3080.20581	670.77240	1735.24805	-3038.54932	526.94983	1701.92151	-2999.85181	541.68384	1586.22388	-3200.01880	379.29214	1674.94385	-3216.02173	337.73425	1672.98865	0.00000	0.00000	0.00000	-3169.61743	313.08063	1687.65674	-3263.49512	164.82239	1637.82141	-3209.67773	167.68103	1564.88342	-3305.13550	155.87184	1571.58337	-3119.69946	60.67990	1595.33606	-3099.03662	66.24956	1650.59326	-3177.73657	55.76320	1693.21960
1318	10.97500	-3306.32812	1063.09277	1440.18213	-3060.40088	1016.89587	1384.92725	-3190.12842	691.91943	1332.59143	-3185.86914	646.08557	1345.62988	-3128.91919	694.33643	1341.11914	-3134.38037	650.24152	1356.24805	0.00000	0.00000	0.00000	-3162.91919	531.17267	1394.92749	-1406.22510	1330.27734	3080.03516	0.00000	0.00000	0.00000	0.00000	0.00000	0.00000	0.00000	0.00000	0.00000	-3291.08691	94.15279	1437.05444	-3317.37915	97.11853	1516.66699	-3379.20312	72.19992	1462.90918	-3153.79907	37.16621	1449.96521	-3139.53345	57.63691	1521.09851	-3163.35181	47.93898	1551.95398	-3319.27734	1056.52136	1541.58069	-3100.89990	1005.10364	1638.11572	-3139.54321	683.90845	1730.65723	-3114.46729	647.58643	1729.26636	-3083.90601	712.52753	1737.16760	-3068.71997	671.50360	1735.09998	-3026.85400	528.51758	1701.33459	-2990.72607	542.73096	1585.25635	-3182.60156	373.43765	1677.79956	-3196.58521	331.42325	1676.78247	0.00000	0.00000	0.00000	-3149.25171	308.87912	1691.58728	-3236.18555	155.60056	1644.56274	-3182.62524	159.70436	1571.45764	-3277.48511	143.76222	1578.53491	-3087.87793	57.43765	1603.86938	-3067.29565	64.89299	1659.01917	-3146.83252	52.55975	1701.72034
1319	10.98333	-3299.57397	1063.24463	1443.37402	-3053.99902	1015.91571	1385.60693	-3186.22388	692.25299	1334.46436	-3182.10010	645.91254	1346.82971	-3124.59277	693.77380	1342.61719	-3131.14673	649.61023	1357.41113	0.00000	0.00000	0.00000	-3159.08691	530.72906	1395.94897	-1407.28882	1329.91663	3078.52173	0.00000	0.00000	0.00000	0.00000	0.00000	0.00000	0.00000	0.00000	0.00000	-3290.60327	94.54775	1437.12341	-3316.96021	97.59642	1516.95435	-3378.89526	72.94347	1463.06213	-3153.69385	37.04347	1449.91528	-3139.63574	57.68865	1521.11145	-3163.16772	47.77975	1552.08533	-3311.50708	1056.68933	1544.85645	-3092.09424	1004.91223	1639.37000	-3128.11646	684.24561	1731.84924	-3102.75098	647.85944	1729.90564	-3072.30981	713.05188	1737.12671	-3056.70532	672.25018	1734.54102	-3015.93530	529.43518	1700.57166	-2982.26245	543.21948	1584.08374	-3165.24609	367.35657	1680.73450	-3177.12866	325.05328	1680.58337	0.00000	0.00000	0.00000	-3128.64038	304.53098	1695.45764	-3208.46680	146.66632	1651.27075	-3154.78149	152.07753	1577.94373	-3249.20068	132.14752	1585.58264	-3055.77197	54.70784	1611.99780	-3035.58911	63.74477	1667.15320	-3113.59204	48.26597	1709.10706
1320	10.99167	-3292.68213	1063.37549	1446.66370	-3047.79614	1014.97137	1386.09595	-3182.08594	692.19928	1335.87439	-3177.98999	645.79700	1348.15784	-3120.77319	693.48169	1343.37158	-3126.98755	649.20111	1358.39612	0.00000	0.00000	0.00000	-3155.49243	530.37109	1396.89429	-1408.36780	1329.48914	3077.06616	0.00000	0.00000	0.00000	0.00000	0.00000	0.00000	0.00000	0.00000	0.00000	-3289.93115	94.91669	1437.31982	-3316.52368	98.06452	1517.27856	-3378.63037	73.79462	1463.23145	-3153.66870	36.95803	1449.87256	-3139.86816	56.67594	1521.01208	-3163.01416	47.65051	1552.24133	-3303.65381	1056.75293	1548.22412	-3083.32837	1004.46979	1640.59009	-3117.15186	684.35504	1733.00378	-3091.83862	648.06976	1730.46143	-3062.23999	713.82379	1736.32800	-3045.24072	672.54663	1734.29565	-3005.48828	529.95538	1699.92078	-2974.04077	543.27948	1582.69971	-3147.79688	361.17618	1683.92371	-3157.63965	317.58548	1683.69824	0.00000	0.00000	0.00000	-3108.00732	300.47195	1699.42114	-3180.23315	138.26953	1658.00464	-3127.48706	144.89827	1584.41760	-3220.08594	120.67369	1592.69653	-3023.79053	52.69201	1619.52075	-3004.06250	63.24166	1674.60938	-3081.79663	45.77414	1717.53064
